#N canvas 757 406 367 449 10;
#X obj 150 50 hradio 50 1 0 2 \$0-bpm-tap empty bpm-tap 24 29 1 20
-262144 -262144 -1 0;
#X obj 50 50 hradio 50 1 0 2 \$0-set-one empty one 10 29 1 20 -262130
-262144 -1 0;
#X obj 68 321 s \$0-beatmonitor;
#X obj 82 182 tgl 15 1 empty empty empty 17 7 0 10 -262144 -1 -1 1
1;
#X obj 68 264 +;
#X obj 68 292 & 3;
#X obj 68 211 metro 500;
#X msg 41 264 0;
#X msg 68 238 1;
#X obj 41 181 t b b;
#N canvas 1059 525 283 423 BPMtap 0;
#X obj 18 159 realtime;
#X obj 18 79 +;
#X msg 18 51 1;
#X obj 18 105 & 3;
#X obj 18 132 sel 1 2;
#X msg 59 79 0;
#X obj 18 238 /;
#X obj 18 188 t b f;
#X obj 18 267 int;
#X text 109 13 compute BPM from 2 clicks;
#X obj 59 34 bng 15 250 50 0 empty empty empty 17 7 0 10 -262144 -1
-1;
#X msg 18 214 60000;
#X obj 17 377 outlet;
#X obj 17 349 /;
#X msg 17 325 60000;
#X obj 17 298 t b f;
#X obj 121 378 outlet;
#X text 63 377 ms;
#X text 166 379 BPM;
#X obj 88 143 loadbang;
#X msg 88 171 500;
#X text 128 56 lower bound;
#X obj 59 55 delay 1000;
#X obj 18 12 inlet;
#X connect 0 0 7 0;
#X connect 1 0 3 0;
#X connect 2 0 1 0;
#X connect 3 0 1 1;
#X connect 3 0 4 0;
#X connect 4 0 0 0;
#X connect 4 1 0 1;
#X connect 5 0 3 0;
#X connect 6 0 8 0;
#X connect 7 0 11 0;
#X connect 7 1 6 1;
#X connect 8 0 15 0;
#X connect 8 0 16 0;
#X connect 10 0 22 0;
#X connect 11 0 6 0;
#X connect 13 0 12 0;
#X connect 14 0 13 0;
#X connect 15 0 14 0;
#X connect 15 1 13 1;
#X connect 19 0 20 0;
#X connect 20 0 7 0;
#X connect 22 0 5 0;
#X connect 23 0 2 0;
#X connect 23 0 10 0;
#X restore 122 178 pd BPMtap;
#X floatatom 129 211 5 0 0 0 - - -;
#X floatatom 170 212 5 0 0 0 - - -;
#X text 177 232 BPM;
#X text 127 230 ms;
#X obj 50 50 hradio 50 1 0 4 \$0-dummysend \$0-beatmonitor 1__2__3__4
14 29 1 30 -1 -4034 -1 0;
#X text 152 31 ________________;
#X text 48 31 ________________;
#X text 175 23 BPM tap;
#X text 58 23 set the One;
#X obj 170 321 outlet;
#X text 36 364 A BPM indicator GUI with two responsive surfaces.;
#X text 34 387 left side: reset BPM sync to the One;
#X text 35 408 right side: BPM tap;
#X obj 41 157 inlet;
#X obj 122 155 inlet;
#X connect 3 0 6 0;
#X connect 4 0 5 0;
#X connect 5 0 4 1;
#X connect 5 0 2 0;
#X connect 6 0 8 0;
#X connect 7 0 5 0;
#X connect 8 0 4 0;
#X connect 9 0 7 0;
#X connect 9 1 6 0;
#X connect 10 0 6 1;
#X connect 10 0 11 0;
#X connect 10 1 12 0;
#X connect 10 1 20 0;
#X connect 24 0 9 0;
#X connect 25 0 10 0;
#X coords 0 -1 1 1 200 50 2 50 50;
