#N canvas 538 488 555 354 12;
#X obj 146 58 inlet~;
#X obj 220 66 inlet;
#X text 122 38 Audio In;
#N canvas 879 475 283 423 BPMtap 0;
#X obj 18 159 realtime;
#X obj 18 79 +;
#X msg 18 51 1;
#X obj 18 105 & 3;
#X obj 18 132 sel 1 2;
#X msg 59 79 0;
#X obj 18 238 /;
#X obj 18 188 t b f;
#X obj 18 267 int;
#X obj 59 34 bng 15 250 50 0 empty empty empty 17 7 0 10 -262144 -1
-1;
#X msg 18 214 60000;
#X obj 17 377 outlet;
#X obj 17 349 /;
#X msg 17 325 60000;
#X obj 17 298 t b f;
#X obj 121 378 outlet;
#X text 63 377 ms;
#X text 166 379 BPM;
#X obj 88 143 loadbang;
#X msg 88 171 500;
#X text 135 56 lower bound;
#X obj 59 55 delay 1000;
#X obj 19 11 inlet;
#X connect 0 0 7 0;
#X connect 1 0 3 0;
#X connect 2 0 1 0;
#X connect 3 0 1 1;
#X connect 3 0 4 0;
#X connect 4 0 0 0;
#X connect 4 1 0 1;
#X connect 5 0 3 0;
#X connect 6 0 8 0;
#X connect 7 0 10 0;
#X connect 7 1 6 1;
#X connect 8 0 14 0;
#X connect 8 0 15 0;
#X connect 9 0 21 0;
#X connect 10 0 6 0;
#X connect 12 0 11 0;
#X connect 13 0 12 0;
#X connect 14 0 13 0;
#X connect 14 1 12 1;
#X connect 18 0 19 0;
#X connect 19 0 7 0;
#X connect 21 0 5 0;
#X connect 22 0 9 0;
#X connect 22 0 2 0;
#X restore 224 146 pd BPMtap;
#X obj 80 145 BPM_Calculator;
#X floatatom 80 204 5 0 0 0 - - -;
#X floatatom 224 204 5 0 0 0 - - -;
#X obj 80 241 outlet;
#X obj 224 242 outlet;
#X text 12 126 BPM timer Old Model;
#X text 298 145 BPM calc New;
#X text 270 63 Common value is 0.3;
#X obj 146 99 aubiotempo~ 0.3;
#X obj 201 127 bng 15 250 50 0 empty empty empty 17 7 0 10 -262144
-1 -1;
#X obj 153 276 outlet;
#X obj 391 242 aubio;
#X text 233 44 Sets sensitivity of note onset detection;
#X connect 0 0 12 0;
#X connect 1 0 12 1;
#X connect 3 1 6 0;
#X connect 4 0 5 0;
#X connect 5 0 7 0;
#X connect 6 0 8 0;
#X connect 12 0 4 0;
#X connect 12 0 13 0;
#X connect 13 0 3 0;
#X connect 13 0 14 0;
