#N canvas 1108 173 1319 914 12;
#X obj 255 316 env~ 1024;
#X obj 255 349 dbtorms;
#X floatatom 255 379 5 0 0 0 - - -;
#X obj 341 316 env~ 1024;
#X obj 341 349 dbtorms;
#X floatatom 341 379 5 0 0 0 - - -;
#X obj 427 316 env~ 1024;
#X obj 427 349 dbtorms;
#X floatatom 427 379 5 0 0 0 - - -;
#X obj 513 316 env~ 1024;
#X obj 513 349 dbtorms;
#X floatatom 513 379 5 0 0 0 - - -;
#X obj 341 285 bp~ 200 50;
#X obj 427 285 bp~ 300 50;
#X obj 513 285 bp~ 400 50;
#X text 238 396 1;
#X text 326 396 2;
#X text 409 396 3;
#X text 497 396 4;
#X obj 368 61 bng 50 250 50 0 empty empty empty 17 7 0 10 -262144 -1
-1;
#X obj 368 148 t b b;
#X msg 351 188 1;
#X obj 648 303 dac~;
#X msg 418 187 open 130_BPM_Kick.wav;
#X obj 379 233 readsf~;
#N canvas 59 25 450 278 (subpatch) 0;
#X array BinOne 88200 float 2;
#X coords 0 1 88200 -1 200 140 1 0 0;
#X restore 1595 561 graph;
#X obj 1373 1017 hsl 195 140 0 1 0 0 empty bin_one_current_location
empty -2 -8 0 10 -262144 -191407 -1 0 1;
#X obj 1422 794 phasor~;
#X obj 1335 380 / 44100;
#X floatatom 1334 423 5 0 0 0 - - -;
#X text 1395 422 length of sound in seconds;
#X obj 1336 487 t b f;
#X msg 1319 533 1;
#X obj 1337 564 /;
#X floatatom 1338 593 5 0 0 0 - - -;
#X obj 1427 864 *~;
#X obj 1399 962 dac~;
#X obj 1401 746 spigot;
#X obj 1672 188 tgl 40 0 empty empty start/stop 17 7 0 10 -262144 -1
-1 0 1;
#X msg 1487 748 0;
#X obj 1402 711 f;
#X obj 1684 360 sel 0 1;
#X msg 1708 434 0, f 6;
#X obj 1432 499 hsl 128 50 -5 5 0 1 empty empty pitch -2 -8 0 10 -262144
-1 -1 12700 1;
#X floatatom 1429 599 5 0 0 0 - - -;
#X obj 1426 627 t b f;
#X obj 1397 666 * 1;
#X obj 1672 140 t b;
#X text 1781 434 start loop from beginning;
#X obj 1601 488 random 100;
#X obj 1601 517 / 10;
#X floatatom 1602 580 5 0 0 0 - - -;
#X obj 1602 547 - 5;
#X obj 1284 812 snapshot~;
#X floatatom 1284 841 5 0 0 0 - - -;
#X obj 1284 776 metro 10;
#X obj 1284 749 tgl 15 0 empty empty empty 17 7 0 10 -262144 -1 -1
1 1;
#X obj 1284 717 loadbang;
#X obj 1336 338 r BinOne_samples;
#X floatatom 1185 1070 15 0 0 0 - - -;
#X obj 1192 945 loadbang;
#X obj 1152 949 bng 15 250 50 0 empty empty empty 17 7 0 10 -262144
-1 -1;
#X obj 1221 1104 s BinOne_samples;
#X msg 1084 1104 BinOne resize \$1;
#X obj 1424 895 tabread4~ BinOne;
#X obj 1541 823 r BinOne_samples;
#X obj 1211 872 s bin_one_current_location;
#X msg 1185 1021 open 130_BPM_Kick.wav;
#X obj 255 285 bp~ 90 50;
#X floatatom 513 464 5 0 0 0 - - -;
#X obj 429 492 bng 50 250 50 0 empty empty empty 17 7 0 10 -258113
-1 -1;
#X obj 513 434 >, f 7;
#X obj 283 701 BPM_Calculator;
#X floatatom 282 739 5 0 0 0 - - -;
#X obj 513 492 sel 1;
#X obj 351 615 t a b b;
#X obj 351 595 spigot 1;
#X msg 431 595 0;
#X msg 396 575 1;
#X obj 282 632 bng 50 250 50 0 empty empty empty 17 7 0 10 -4034 -1
-1;
#X text 464 587 Debouncer;
#X text 688 305 DAC Output;
#X text 430 81 START;
#X text 111 379 volume of 4 partials;
#X text 241 740 BPM;
#X text 567 453 Conditional Logic for Peak Picking;
#X text 180 646 Debounced Bang;
#X text 299 490 Non-Debounced Bang;
#X text 132 285 Band Pass Filters;
#X text 580 187 Read Kick recording;
#X msg 582 417 0.01;
#X obj 395 555 del;
#X connect 0 0 1 0;
#X connect 1 0 2 0;
#X connect 3 0 4 0;
#X connect 4 0 5 0;
#X connect 6 0 7 0;
#X connect 7 0 8 0;
#X connect 9 0 10 0;
#X connect 10 0 11 0;
#X connect 11 0 71 0;
#X connect 12 0 3 0;
#X connect 13 0 6 0;
#X connect 14 0 9 0;
#X connect 14 0 22 0;
#X connect 14 0 22 1;
#X connect 19 0 20 0;
#X connect 20 0 21 0;
#X connect 20 1 23 0;
#X connect 21 0 24 0;
#X connect 23 0 24 0;
#X connect 24 0 12 0;
#X connect 24 0 13 0;
#X connect 24 0 14 0;
#X connect 24 0 68 0;
#X connect 27 0 35 0;
#X connect 27 0 53 0;
#X connect 28 0 29 0;
#X connect 29 0 31 0;
#X connect 31 0 32 0;
#X connect 31 1 33 1;
#X connect 32 0 33 0;
#X connect 33 0 34 0;
#X connect 34 0 46 0;
#X connect 35 0 64 0;
#X connect 37 0 27 0;
#X connect 38 0 37 1;
#X connect 38 0 41 0;
#X connect 39 0 27 0;
#X connect 40 0 37 0;
#X connect 41 0 39 0;
#X connect 41 1 40 0;
#X connect 41 1 42 0;
#X connect 42 0 27 1;
#X connect 43 0 44 0;
#X connect 44 0 45 0;
#X connect 45 0 46 0;
#X connect 45 1 46 1;
#X connect 46 0 40 0;
#X connect 47 0 38 0;
#X connect 47 0 49 0;
#X connect 49 0 50 0;
#X connect 50 0 52 0;
#X connect 51 0 44 0;
#X connect 52 0 51 0;
#X connect 53 0 54 0;
#X connect 54 0 66 0;
#X connect 55 0 53 0;
#X connect 56 0 55 0;
#X connect 57 0 56 0;
#X connect 58 0 28 0;
#X connect 59 0 63 0;
#X connect 59 0 62 0;
#X connect 60 0 67 0;
#X connect 61 0 67 0;
#X connect 64 0 36 0;
#X connect 64 0 36 1;
#X connect 65 0 35 1;
#X connect 67 0 59 0;
#X connect 68 0 0 0;
#X connect 69 0 74 0;
#X connect 70 0 76 0;
#X connect 70 0 91 1;
#X connect 71 0 69 0;
#X connect 72 0 73 0;
#X connect 74 0 70 0;
#X connect 75 0 79 0;
#X connect 75 1 91 0;
#X connect 75 2 77 0;
#X connect 76 0 75 0;
#X connect 77 0 76 1;
#X connect 78 0 76 1;
#X connect 79 0 72 0;
#X connect 90 0 71 1;
#X connect 91 0 78 0;
